<svg width="42" height="40" viewBox="0 0 42 40" fill="none" xmlns="http://www.w3.org/2000/svg">
<g clip-path="url(#clip0_50_1416)">
<path d="M11.566 0H13.0216L23.9111 0.592992L36.7412 1.2938L41.593 1.56334L41.7008 1.61725V3.07278L40.9461 17.7358L40.2992 30.2426L40.1914 32.4528L40.1375 32.6146H39.221L38.4663 32.5606L38.4124 34.5553L38.1968 40H36.4717L22.1321 39.407L15.717 39.1375H13.7224L5.31267 39.6765H4.71968L4.66577 39.6226L4.45014 35.8491L2.99461 36.0108H2.56335L2.50944 35.9569L1.86254 29.4879L1.26954 23.7197L0.730461 18.3288L0.299194 14.0701V13.3154L0.946095 13.2075L3.10243 12.9919L3.04852 12.8302L2.56335 4.69003V3.93531L4.8814 3.77358L10.8113 3.39623H11.4043L11.4582 2.04852L11.566 0ZM6.06739 5.28302V36.1725H36.0943V5.28302H6.06739Z" fill="#BD3901"/>
<path d="M9.62529 21.3479H12.0512L12.3207 21.9409L13.4528 24.9059L14.2075 26.9544L14.3692 27.4396L14.477 27.2779L15.07 25.6067L15.9326 23.3425L16.5256 21.8331L16.7412 21.3479H19.1132V31.5366H17.1725L17.1186 31.4827V24.9059L16.256 27.17L15.6091 28.7334L14.6927 31.0514L14.531 31.3749H14.2614L13.9919 30.7819L13.1293 28.6795L12.1051 26.1997L11.6199 24.9598V31.4827L11.566 31.5366H9.62529V21.3479Z" fill="#007A2C"/>
<path d="M23.2641 10.4584H24.5579V12.5609H28.062L28.3854 13.6929L29.4097 17.5204L30.38 13.8547L30.7035 12.6148L30.7574 12.5609H32.8598L32.6981 13.1539L32.0512 15.1485L31.2965 17.3587L30.2183 20.5932L29.787 21.5636L29.4097 22.0487L28.9784 22.4261L28.3854 22.6417L28.1159 22.6956H26.876L26.2291 22.5878L26.3369 21.6714L26.4447 21.0245L26.6603 20.9706L27.1994 21.0784H27.6846L27.9541 20.9167L28.1698 20.5932L28.3315 20.108L28.2776 19.7307L26.3908 14.0703V13.9086H24.5579L24.6118 18.0595L24.7196 18.2752L24.8814 18.383H25.5822L25.9056 18.3291L26.0134 18.8681L26.0673 19.7846L25.69 19.9463L25.1509 20.0541H24.1266L23.5336 19.8924L23.1024 19.6229L22.7789 19.1916L22.6172 18.7603L22.5633 18.4369V13.9086H21.4312V12.5609L22.0781 12.507L22.5633 12.2913L22.8328 11.9679L23.0485 11.4288L23.2102 10.5663L23.2641 10.4584Z" fill="#007A2C"/>
<path d="M13.345 9.43419H14.3692L15.1779 9.542L15.9865 9.81154L16.6873 10.1889L17.2264 10.6741L17.6576 11.1053L18.035 11.6444V11.7522L16.256 12.6687L15.9865 12.7226L15.5552 12.1296L15.1239 11.7522L14.6927 11.5366L14.3692 11.4288L13.7762 11.3749L13.1293 11.4827L12.5903 11.6983L12.2129 12.0218H12.1051L11.9973 12.2374L11.6738 12.7765L11.4582 13.3156L11.2965 14.1781V15.2563L11.4582 16.0649L11.7277 16.7657L12.0512 17.2509L12.4824 17.6822L13.1293 18.0056L13.7762 18.1134L14.477 18.0595L15.07 17.8439L15.5552 17.4665L15.9326 16.8735L16.0943 16.5501L16.3638 16.604L17.8733 17.4126L18.035 17.5204L17.9811 17.7361L17.6037 18.3291L17.1186 18.8681L16.6334 19.2994L15.9865 19.6768L15.3935 19.8924L14.477 20.0541H13.1832L12.3207 19.8924L11.6199 19.6229L11.0269 19.2994L10.4339 18.8142L9.94874 18.2212L9.51748 17.4665L9.24794 16.7657L9.0323 15.7415L8.97839 14.5016L9.08621 13.3695L9.40966 12.2374L9.89484 11.321L10.3261 10.7819L10.7574 10.4045L11.2965 10.0272L12.159 9.64982L12.8598 9.48809L13.345 9.43419Z" fill="#007A2C"/>
<path d="M22.9407 24.0434H23.8571L24.7196 24.2051L25.3665 24.5285L25.7439 24.9059L26.0134 25.445L26.1752 26.1997L26.2291 30.4045L26.3369 31.0514L26.4447 31.5366H24.504L24.3423 31.0514V30.728H24.2345L24.1266 30.9975L23.6415 31.4288L23.2102 31.6444L22.7789 31.7522H21.8625L21.1617 31.5366L20.6765 31.2132L20.3531 30.8358L20.1374 30.4045L19.9757 29.7037V29.1646L20.1374 28.5177L20.4609 27.9787L20.946 27.6013L21.3773 27.3857L22.0781 27.17L22.9407 27.0083L23.9649 26.8466H24.1805L24.0727 26.0919L23.8571 25.8223L23.318 25.6606L22.6172 25.7145L22.0242 25.9301L21.4312 26.3075L21.2156 26.5231H21.0539L20.1913 25.2832L20.2452 25.0676L20.946 24.5824L21.7547 24.259L22.4555 24.0973L22.9407 24.0434ZM23.911 28.1943L22.5633 28.4638L22.0781 28.7334L21.8625 29.0568V29.6498L22.0781 30.0272L22.4016 30.2428L22.8328 30.2967L23.3719 30.135L23.8032 29.7576L24.0727 29.2186L24.1266 28.949V28.1943H23.911Z" fill="#007A2C"/>
<path d="M30.6496 21.3479H32.5903V31.5366H30.6496L30.5956 31.4827V21.4018L30.6496 21.3479Z" fill="#007A2C"/>
<path d="M27.4151 24.259H29.4097V31.5366H27.4151V24.259Z" fill="#007A2C"/>
<path d="M18.8436 12.5609H20.8382V19.8385H18.8436V12.5609Z" fill="#007A2C"/>
<path d="M19.7062 9.27246L20.2452 9.32637L20.6226 9.542L20.946 9.97327L21 10.1889V10.7819L20.7843 11.2132L20.4609 11.5366L20.1913 11.6444H19.4905L19.0593 11.3749L18.8436 11.1053L18.6819 10.6741V10.2428L18.8975 9.75764L19.1671 9.48809L19.4366 9.32637L19.7062 9.27246Z" fill="#007A2C"/>
</g>
<defs>
<clipPath id="clip0_50_1416">
<rect width="41.4016" height="40" fill="white" transform="translate(0.299194)"/>
</clipPath>
</defs>
</svg>
